<?xml version="1.0" encoding="utf-8"?>
<!-- Generator: Adobe Illustrator 17.0.1, SVG Export Plug-In . SVG Version: 6.00 Build 0)  -->
<!DOCTYPE svg PUBLIC "-//W3C//DTD SVG 1.1//EN" "http://www.w3.org/Graphics/SVG/1.1/DTD/svg11.dtd">
<svg version="1.1" xmlns="http://www.w3.org/2000/svg" xmlns:xlink="http://www.w3.org/1999/xlink" x="0px" y="0px"
	 width="123.77px" height="85.125px" viewBox="0 0 123.77 85.125" enable-background="new 0 0 123.77 85.125" xml:space="preserve">
<g id="Layer_1">
	<g id="Layer_2">
	</g>
</g>
<g id="Restricted_Member">
</g>
<g id="Restricted_Member_copy">
</g>
<g id="Layer_6">
	<path fill="#F58523" d="M13.274,37.581c0,0,3.363-7.02,8.366-7.02c4.264,0,64.459,0,84.953,0v-9.106c0-6.627-5.373-12-12-12H53.334
		V6.5c0-3.75-2.952-6.5-8.202-6.5h-36.5C3.257,0,0.076,3.625,0.076,9v11.95c0,0.071,0.013,0.139,0.015,0.209
		c-0.002,0.1-0.015,0.196-0.015,0.296c0,0-0.172,58.208,0,58.822C-0.073,77.576,13.274,37.581,13.274,37.581z"/>
	<path fill="#F58523" d="M102.176,84.828c-4.502,0-84.539,0-93.044,0c-8.504,0-3.381-11.659-3.381-11.659L17.274,40.72
		c0,0,3.363-6.659,8.366-6.659c5.003,0,87.042,0,91.544,0c10.505,0,5.294,10.458,5.294,10.458s-4.461,12.047-9.879,27.851
		C107.179,88.176,106.678,84.828,102.176,84.828z"/>
	<circle fill="none" stroke="#808080" stroke-width="9" stroke-miterlimit="10" cx="63.176" cy="46.988" r="28.489"/>
	
		<rect x="36.054" y="42.721" transform="matrix(0.7071 -0.7071 0.7071 0.7071 -15.5313 58.6348)" fill="#808080" stroke="#808080" stroke-width="0.5" stroke-miterlimit="10" width="53.917" height="10.688"/>
</g>
<g id="Layer_2_copy">
</g>
<g id="Layer_5">
</g>
</svg>
