<?xml version="1.0" encoding="utf-8"?>
<!-- Generator: Adobe Illustrator 15.0.0, SVG Export Plug-In . SVG Version: 6.00 Build 0)  -->
<!DOCTYPE svg PUBLIC "-//W3C//DTD SVG 1.1//EN" "http://www.w3.org/Graphics/SVG/1.1/DTD/svg11.dtd">
<svg version="1.1" id="Layer_1" xmlns="http://www.w3.org/2000/svg" xmlns:xlink="http://www.w3.org/1999/xlink" x="0px" y="0px"
	 width="384.105px" height="448.125px" viewBox="121.406 137.802 384.105 448.125"
	 enable-background="new 121.406 137.802 384.105 448.125" xml:space="preserve">
<path fill="#F4F4F4" stroke="#CCCCCC" stroke-width="4" stroke-miterlimit="10" d="M494.919,566.008
	c0,4.094-3.465,7.561-7.563,7.561H139.556c-4.097,0-7.557-3.467-7.557-7.561V157.722c0-4.096,3.46-7.562,7.557-7.562h226.825
	c2.282,0,4.848,0.292,7.563,0.808v120.167h120.167c0.514,2.715,0.808,5.275,0.808,7.562V566.008z"/>
<polygon fill="#414CA0" points="374.944,150.968 132.999,150.968 132.999,257.599 426.584,257.599 "/>
<g>
	
		<image overflow="visible" opacity="0.75" width="140" height="140" xlink:href="C745101E.png"  transform="matrix(1 0 0 1 360.5 144.5)">
	</image>
	<g>
		<path fill="#F4F4F4" d="M488.047,262.76c2.318,2.315,4.627,5.16,6.872,8.374H373.944V150.16c3.216,2.246,6.058,4.553,8.378,6.868
			L488.047,262.76z"/>
		<path fill="none" stroke="#CCCCCC" stroke-width="4" stroke-miterlimit="10" d="M488.047,262.76
			c2.318,2.315,4.627,5.16,6.872,8.374H373.944V150.16c3.216,2.246,6.058,4.553,8.378,6.868L488.047,262.76z"/>
	</g>
</g>
<text transform="matrix(1 0 0 1 178.0967 442.3057)" fill="#414DA0" font-family="'Helvetica-Bold'" font-size="125.0998">DOC</text>
</svg>
