<?xml version="1.0" encoding="utf-8"?>
<!-- Generator: Adobe Illustrator 15.0.0, SVG Export Plug-In . SVG Version: 6.00 Build 0)  -->
<!DOCTYPE svg PUBLIC "-//W3C//DTD SVG 1.1//EN" "http://www.w3.org/Graphics/SVG/1.1/DTD/svg11.dtd">
<svg version="1.1" id="Layer_1" xmlns="http://www.w3.org/2000/svg" xmlns:xlink="http://www.w3.org/1999/xlink" x="0px" y="0px"
	 width="72px" height="72px" viewBox="0 0 72 72" enable-background="new 0 0 72 72" xml:space="preserve">
<path fill="#F2F2F2" stroke="#848484" stroke-width="2" stroke-miterlimit="10" d="M62.031,25.017L38.984,1H10.023
	C9.419,1,9,1.384,9,2.036v64.92C9,67.607,9.325,68,9.93,68h51.401C61.937,68,62,67.607,62,66.956L62.031,25.017z"/>
<polyline fill="none" stroke="#848484" stroke-width="2" stroke-miterlimit="10" points="39,1 39,25 62.031,25.017 "/>
<g>
	
		<rect x="49.954" y="37.305" transform="matrix(-0.7837 -0.6211 0.6211 -0.7837 63.6747 123.5606)" fill="#606060" width="6.795" height="26.776"/>
	<polygon fill="#606060" points="67.019,37.941 62.676,34.5 61.792,34.574 59.657,37.269 64.982,41.488 67.117,38.794 	"/>
	<polygon fill="#606060" points="41.516,66.059 47.021,64.15 41.695,59.931 	"/>
</g>
<g>
	
		<rect x="49.954" y="38.197" transform="matrix(-0.7837 -0.6211 0.6211 -0.7837 63.1209 125.151)" fill="#F58523" width="6.795" height="26.776"/>
	<polygon fill="#F58523" points="67.019,38.833 62.676,35.391 61.792,35.465 59.657,38.16 64.982,42.38 67.117,39.686 	"/>
	<polygon fill="#F58523" points="41.516,66.95 47.021,65.042 41.695,60.822 	"/>
</g>
</svg>
