<?xml version="1.0" encoding="utf-8"?>
<!-- Generator: Adobe Illustrator 15.0.0, SVG Export Plug-In . SVG Version: 6.00 Build 0)  -->
<!DOCTYPE svg PUBLIC "-//W3C//DTD SVG 1.1//EN" "http://www.w3.org/Graphics/SVG/1.1/DTD/svg11.dtd">
<svg version="1.1" id="Layer_1" xmlns="http://www.w3.org/2000/svg" xmlns:xlink="http://www.w3.org/1999/xlink" x="0px" y="0px"
	 width="72px" height="72px" viewBox="0 0 72 72" enable-background="new 0 0 72 72" xml:space="preserve">
<path fill="#F2F2F2" stroke="#848484" stroke-width="2" stroke-miterlimit="10" d="M62.031,25.017L38.984,1H10.023
	C9.419,1,9,1.384,9,2.036v64.92C9,67.607,9.325,68,9.93,68h51.401C61.937,68,62,67.607,62,66.956L62.031,25.017z"/>
<polyline fill="none" stroke="#848484" stroke-width="2" stroke-miterlimit="10" points="39,1 39,25 62.031,25.017 "/>
<path fill="#606060" d="M66.759,51.127L54.428,38.646l0.026,5.788c-2.96,0.42-21.324,3.908-20.125,25.681
	c0,0-0.387-13.73,20.179-13.347l0.028,6.436L66.759,51.127z"/>
<path fill="#F58523" d="M67.439,51.96L55.108,39.479l0.026,5.788c-2.96,0.42-21.324,3.908-20.125,25.681
	c0,0-0.387-13.73,20.179-13.347l0.028,6.436L67.439,51.96z"/>
</svg>
