<?xml version="1.0" encoding="utf-8"?>
<!-- Generator: Adobe Illustrator 15.0.0, SVG Export Plug-In . SVG Version: 6.00 Build 0)  -->
<!DOCTYPE svg PUBLIC "-//W3C//DTD SVG 1.1//EN" "http://www.w3.org/Graphics/SVG/1.1/DTD/svg11.dtd">
<svg version="1.1" id="Layer_1" xmlns="http://www.w3.org/2000/svg" xmlns:xlink="http://www.w3.org/1999/xlink" x="0px" y="0px"
	 width="72px" height="72px" viewBox="0 0 72 72" enable-background="new 0 0 72 72" xml:space="preserve">
<path fill="#F2F2F2" stroke="#848484" stroke-width="2" stroke-miterlimit="10" d="M62.031,25.017L38.984,1H10.023
	C9.419,1,9,1.384,9,2.036v64.92C9,67.607,9.325,68,9.93,68h51.401C61.937,68,62,67.607,62,66.956L62.031,25.017z"/>
<polyline fill="none" stroke="#848484" stroke-width="2" stroke-miterlimit="10" points="39,1 39,25 62.031,25.017 "/>
<polygon fill="#606060" points="65.151,48.849 58.743,42.441 50.516,50.668 42.288,42.441 35.881,48.849 44.109,57.076 
	35.881,65.304 42.288,71.71 50.516,63.483 58.742,71.71 65.151,65.304 56.924,57.076 "/>
<polygon fill="#DD0B0B" points="66.24,48.849 59.832,42.441 51.604,50.668 43.377,42.441 36.97,48.849 45.198,57.076 36.97,65.304 
	43.377,71.71 51.604,63.483 59.831,71.71 66.24,65.304 58.013,57.076 "/>
</svg>
