<?xml version="1.0" encoding="utf-8"?>
<!-- Generator: Adobe Illustrator 15.0.0, SVG Export Plug-In . SVG Version: 6.00 Build 0)  -->
<!DOCTYPE svg PUBLIC "-//W3C//DTD SVG 1.1//EN" "http://www.w3.org/Graphics/SVG/1.1/DTD/svg11.dtd">
<svg version="1.1" id="Layer_1" xmlns="http://www.w3.org/2000/svg" xmlns:xlink="http://www.w3.org/1999/xlink" x="0px" y="0px"
	 width="72px" height="72px" viewBox="0 0 72 72" enable-background="new 0 0 72 72" xml:space="preserve">
<path fill="#F2F2F2" stroke="#848484" stroke-width="2" stroke-miterlimit="10" d="M62.031,25.017L38.984,1H10.023
	C9.419,1,9,1.384,9,2.036v64.92C9,67.607,9.325,68,9.93,68h51.401C61.937,68,62,67.607,62,66.956L62.031,25.017z"/>
<polyline fill="none" stroke="#848484" stroke-width="2" stroke-miterlimit="10" points="39,1 39,25 62.031,25.017 "/>
<polygon fill="#606060" points="55.637,43.221 47.573,43.221 47.571,53.578 37.216,53.578 37.216,61.642 47.573,61.642 47.573,72 
	55.638,71.998 55.638,61.642 65.993,61.642 65.993,53.578 55.638,53.578 "/>
<polygon fill="#F58523" points="56.387,43.221 48.323,43.221 48.321,53.578 37.966,53.578 37.966,61.642 48.323,61.642 48.323,72 
	56.388,71.998 56.388,61.642 66.743,61.642 66.743,53.578 56.388,53.578 "/>
</svg>
