<?xml version="1.0" encoding="utf-8"?>
<!-- Generator: Adobe Illustrator 17.0.0, SVG Export Plug-In . SVG Version: 6.00 Build 0)  -->
<!DOCTYPE svg PUBLIC "-//W3C//DTD SVG 1.1//EN" "http://www.w3.org/Graphics/SVG/1.1/DTD/svg11.dtd">
<svg version="1.1" id="Layer_1" xmlns="http://www.w3.org/2000/svg" xmlns:xlink="http://www.w3.org/1999/xlink" x="0px" y="0px"
	 width="72px" height="72px" viewBox="0 0 72 72" enable-background="new 0 0 72 72" xml:space="preserve">
<polyline fill="none" stroke="#848484" stroke-width="2" stroke-miterlimit="10" points="39,1 39,25 62.031,25.017 "/>
<polygon fill="#F58523" points="56.387,43.221 48.323,43.221 48.321,53.578 37.966,53.578 37.966,61.642 48.323,61.642 48.323,72 
	56.388,71.998 56.388,61.642 66.743,61.642 66.743,53.578 56.388,53.578 "/>
<g>
	<path fill="#F2F2F2" d="M9.107,19.4L26.763,1H48.95c0.463,0,0.784,0.294,0.784,0.794v49.736c0,0.499-0.249,0.8-0.712,0.8H9.643
		c-0.464,0-0.513-0.301-0.513-0.8L9.107,19.4z"/>
	<path fill="none" stroke="#848484" stroke-width="2" stroke-miterlimit="10" d="M9.107,19.4L26.763,1H48.95
		c0.463,0,0.784,0.294,0.784,0.794v49.736c0,0.499-0.249,0.8-0.712,0.8H9.643c-0.464,0-0.513-0.301-0.513-0.8L9.107,19.4z"/>
</g>
<polyline fill="none" stroke="#848484" stroke-width="2" stroke-miterlimit="10" points="9.235,19.4 27.622,19.4 27.635,1.755 "/>
<g>
	<path fill="#F2F2F2" d="M21.42,34.869l17.656-18.4h22.187c0.463,0,0.784,0.294,0.784,0.794v49.736c0,0.499-0.249,0.8-0.712,0.8
		H21.957c-0.464,0-0.513-0.301-0.513-0.8L21.42,34.869z"/>
	<path fill="none" stroke="#848484" stroke-width="2" stroke-miterlimit="10" d="M21.42,34.869l17.656-18.4h22.187
		c0.463,0,0.784,0.294,0.784,0.794v49.736c0,0.499-0.249,0.8-0.712,0.8H21.957c-0.464,0-0.513-0.301-0.513-0.8L21.42,34.869z"/>
</g>
<polyline fill="none" stroke="#848484" stroke-width="2" stroke-miterlimit="10" points="21.549,34.869 39.935,34.869 
	39.948,17.225 "/>
<polygon fill="#606060" points="55.894,43.221 47.83,43.221 47.828,53.578 37.473,53.578 37.473,61.642 47.83,61.642 47.83,72 
	55.895,71.998 55.895,61.642 66.25,61.642 66.25,53.578 55.895,53.578 "/>
<polygon fill="#F58523" points="56.644,43.221 48.58,43.221 48.578,53.578 38.223,53.578 38.223,61.642 48.58,61.642 48.58,72 
	56.645,71.998 56.645,61.642 67,61.642 67,53.578 56.645,53.578 "/>
</svg>
