<?xml version="1.0" encoding="utf-8"?>
<!-- Generator: Adobe Illustrator 15.0.0, SVG Export Plug-In . SVG Version: 6.00 Build 0)  -->
<!DOCTYPE svg PUBLIC "-//W3C//DTD SVG 1.1//EN" "http://www.w3.org/Graphics/SVG/1.1/DTD/svg11.dtd">
<svg version="1.1" id="Layer_1" xmlns="http://www.w3.org/2000/svg" xmlns:xlink="http://www.w3.org/1999/xlink" x="0px" y="0px"
	 width="72px" height="72px" viewBox="0 0 72 72" enable-background="new 0 0 72 72" xml:space="preserve">
<path fill="#F2F2F2" stroke="#848484" stroke-width="2" stroke-miterlimit="10" d="M60.703,18.985H36.181v-1.756
	c0-2.229-1.754-3.863-4.875-3.863H9.614c-3.195,0-5.085,2.154-5.085,5.349v7.102c0,0.042,0.008,0.083,0.009,0.125
	C4.537,26,4.529,26.058,4.529,26.118v29.716c0,3.938,3.192,7.132,7.132,7.132h49.042c3.938,0,7.131-3.192,7.131-7.132V26.118
	C67.834,22.179,64.641,18.985,60.703,18.985z"/>
<path fill="#606060" d="M71.396,55.26c0.166-0.857,0.256-1.741,0.256-2.646s-0.09-1.79-0.256-2.646h-3.215
	c-0.255-1.007-0.654-1.957-1.173-2.828l2.276-2.275c-0.996-1.475-2.27-2.747-3.743-3.743l-2.275,2.276
	c-0.871-0.519-1.821-0.918-2.828-1.173v-3.215c-0.857-0.166-1.741-0.256-2.647-0.256c-0.904,0-1.788,0.09-2.645,0.256v3.215
	c-1.009,0.255-1.958,0.654-2.828,1.173l-2.275-2.276c-1.477,0.996-2.749,2.269-3.743,3.743l2.276,2.275
	c-0.52,0.871-0.919,1.821-1.174,2.828h-3.215c-0.167,0.856-0.256,1.741-0.256,2.646s0.089,1.789,0.256,2.646h3.215
	c0.255,1.007,0.654,1.957,1.174,2.827L46.3,60.363c0.994,1.475,2.267,2.747,3.743,3.743l2.275-2.276
	c0.87,0.519,1.819,0.918,2.828,1.173v3.215c0.856,0.166,1.74,0.256,2.645,0.256c0.906,0,1.79-0.09,2.647-0.256v-3.215
	c1.007-0.255,1.957-0.654,2.828-1.173l2.275,2.276c1.474-0.995,2.747-2.269,3.743-3.743l-2.276-2.275
	c0.519-0.871,0.918-1.821,1.173-2.828H71.396z M57.793,57.87c-2.905,0-5.258-2.354-5.258-5.257s2.353-5.258,5.258-5.258
	c2.902,0,5.256,2.354,5.256,5.258S60.695,57.87,57.793,57.87z"/>
<path fill="#F58523" d="M71.584,56.072c0.166-0.857,0.256-1.741,0.256-2.646s-0.09-1.79-0.256-2.646h-3.215
	c-0.255-1.007-0.654-1.957-1.173-2.828l2.276-2.275c-0.996-1.475-2.27-2.747-3.743-3.743l-2.275,2.276
	c-0.871-0.519-1.821-0.918-2.828-1.173v-3.215c-0.857-0.166-1.741-0.256-2.647-0.256c-0.904,0-1.788,0.09-2.645,0.256v3.215
	c-1.009,0.255-1.958,0.654-2.828,1.173l-2.275-2.276c-1.477,0.996-2.749,2.269-3.743,3.743l2.276,2.275
	c-0.52,0.871-0.919,1.821-1.174,2.828h-3.215c-0.167,0.856-0.256,1.741-0.256,2.646s0.089,1.789,0.256,2.646h3.215
	c0.255,1.007,0.654,1.957,1.174,2.827l-2.276,2.276c0.994,1.475,2.267,2.747,3.743,3.743l2.275-2.276
	c0.87,0.519,1.819,0.918,2.828,1.173v3.215c0.856,0.166,1.74,0.256,2.645,0.256c0.906,0,1.79-0.09,2.647-0.256v-3.215
	c1.007-0.255,1.957-0.654,2.828-1.173l2.275,2.276c1.474-0.995,2.747-2.269,3.743-3.743L67.196,58.9
	c0.519-0.871,0.918-1.821,1.173-2.828H71.584z M57.98,58.683c-2.905,0-5.258-2.354-5.258-5.257s2.353-5.258,5.258-5.258
	c2.902,0,5.256,2.354,5.256,5.258S60.883,58.683,57.98,58.683z"/>
</svg>
