<?xml version="1.0" encoding="utf-8"?>
<!-- Generator: Adobe Illustrator 15.0.0, SVG Export Plug-In . SVG Version: 6.00 Build 0)  -->
<!DOCTYPE svg PUBLIC "-//W3C//DTD SVG 1.1//EN" "http://www.w3.org/Graphics/SVG/1.1/DTD/svg11.dtd">
<svg version="1.1" id="Layer_1" xmlns="http://www.w3.org/2000/svg" xmlns:xlink="http://www.w3.org/1999/xlink" x="0px" y="0px"
	 width="72px" height="72px" viewBox="0 0 72 72" enable-background="new 0 0 72 72" xml:space="preserve">
<path fill="#F2F2F2" stroke="#848484" stroke-width="2" stroke-miterlimit="10" d="M60.703,18.985H36.181v-1.756
	c0-2.229-1.754-3.863-4.875-3.863H9.614c-3.195,0-5.085,2.154-5.085,5.349v7.102c0,0.042,0.008,0.083,0.009,0.125
	C4.537,26,4.529,26.058,4.529,26.118v29.716c0,3.938,3.192,7.132,7.132,7.132h49.042c3.938,0,7.131-3.193,7.131-7.132V26.118
	C67.834,22.179,64.641,18.985,60.703,18.985z"/>
<polygon fill="#606060" points="71.973,45.033 65.847,38.907 57.979,46.773 50.112,38.907 43.986,45.033 51.854,52.9 43.986,60.768 
	50.112,66.894 57.979,59.027 65.846,66.894 71.973,60.768 64.106,52.9 "/>
<polygon fill="#DD0B0B" points="71.941,45.799 65.815,39.673 57.948,47.539 50.081,39.673 43.955,45.799 51.822,53.666 
	43.955,61.533 50.081,67.659 57.948,59.793 65.814,67.659 71.941,61.533 64.075,53.666 "/>
</svg>
