<?xml version="1.0" encoding="utf-8"?>
<!-- Generator: Adobe Illustrator 15.0.0, SVG Export Plug-In . SVG Version: 6.00 Build 0)  -->
<!DOCTYPE svg PUBLIC "-//W3C//DTD SVG 1.1//EN" "http://www.w3.org/Graphics/SVG/1.1/DTD/svg11.dtd">
<svg version="1.1" id="Layer_1" xmlns="http://www.w3.org/2000/svg" xmlns:xlink="http://www.w3.org/1999/xlink" x="0px" y="0px"
	 width="72px" height="72px" viewBox="0 0 72 72" enable-background="new 0 0 72 72" xml:space="preserve">
<path fill="#F2F2F2" stroke="#848484" stroke-width="2" stroke-miterlimit="10" d="M60.703,18.985H36.181v-1.756
	c0-2.229-1.754-3.863-4.875-3.863H9.614c-3.195,0-5.085,2.154-5.085,5.349v7.102c0,0.042,0.008,0.083,0.009,0.125
	C4.537,26,4.529,26.058,4.529,26.118v29.716c0,3.938,3.192,7.132,7.132,7.132h49.042c3.938,0,7.131-3.193,7.131-7.132V26.118
	C67.834,22.179,64.641,18.985,60.703,18.985z"/>
<g>
	
		<rect x="55.096" y="33.979" transform="matrix(-0.7838 -0.621 0.621 -0.7838 75.0355 119.5265)" fill="#606060" width="6.457" height="25.444"/>
	<polygon fill="#606060" points="71.312,34.582 67.186,31.311 66.346,31.382 64.317,33.942 69.378,37.953 71.406,35.393 	"/>
	<polygon fill="#606060" points="47.076,61.303 52.309,59.49 47.248,55.479 	"/>
</g>
<g>
	
		<rect x="55.393" y="34.479" transform="matrix(-0.7838 -0.621 0.621 -0.7838 75.2545 120.6027)" fill="#F58523" width="6.457" height="25.444"/>
	<polygon fill="#F58523" points="71.609,35.082 67.482,31.811 66.643,31.882 64.614,34.442 69.675,38.453 71.703,35.893 	"/>
	<polygon fill="#F58523" points="47.373,61.803 52.605,59.99 47.545,55.979 	"/>
</g>
</svg>
