<?xml version="1.0" encoding="utf-8"?>
<!-- Generator: Adobe Illustrator 15.0.0, SVG Export Plug-In . SVG Version: 6.00 Build 0)  -->
<!DOCTYPE svg PUBLIC "-//W3C//DTD SVG 1.1//EN" "http://www.w3.org/Graphics/SVG/1.1/DTD/svg11.dtd">
<svg version="1.1" id="Layer_1" xmlns="http://www.w3.org/2000/svg" xmlns:xlink="http://www.w3.org/1999/xlink" x="0px" y="0px"
	 width="72px" height="72px" viewBox="0 0 72 72" enable-background="new 0 0 72 72" xml:space="preserve">
<path fill="#F2F2F2" stroke="#848484" stroke-width="2" stroke-miterlimit="10" d="M60.703,18.985H36.181v-1.756
	c0-2.229-1.754-3.863-4.875-3.863H9.614c-3.195,0-5.085,2.154-5.085,5.349v7.102c0,0.042,0.008,0.083,0.009,0.125
	C4.537,26,4.529,26.058,4.529,26.118v29.716c0,3.938,3.192,7.132,7.132,7.132h49.042c3.938,0,7.131-3.193,7.131-7.132V26.118
	C67.834,22.179,64.641,18.985,60.703,18.985z"/>
<polygon fill="#606060" points="61.529,39.35 53.742,39.35 53.741,49.352 43.74,49.352 43.74,57.139 53.742,57.139 53.742,67.141 
	61.53,67.14 61.53,57.139 71.531,57.139 71.531,49.352 61.531,49.351 "/>
<polygon fill="#F58523" points="61.842,39.771 54.055,39.771 54.054,49.771 44.053,49.771 44.053,57.56 54.055,57.56 54.055,67.562 
	61.843,67.561 61.843,57.56 71.844,57.56 71.844,49.771 61.844,49.771 "/>
</svg>
