<?xml version="1.0" encoding="utf-8"?>
<!-- Generator: Adobe Illustrator 15.0.0, SVG Export Plug-In . SVG Version: 6.00 Build 0)  -->
<!DOCTYPE svg PUBLIC "-//W3C//DTD SVG 1.1//EN" "http://www.w3.org/Graphics/SVG/1.1/DTD/svg11.dtd">
<svg version="1.1" id="Layer_1" xmlns="http://www.w3.org/2000/svg" xmlns:xlink="http://www.w3.org/1999/xlink" x="0px" y="0px"
	 width="366.014px" height="272.604px" viewBox="130.452 233.971 366.014 272.604"
	 enable-background="new 130.452 233.971 366.014 272.604" xml:space="preserve">
<linearGradient id="SVGID_1_" gradientUnits="userSpaceOnUse" x1="313.459" y1="233.9707" x2="313.459" y2="506.5757">
	<stop  offset="0" style="stop-color:#9BB8E0"/>
	<stop  offset="1" style="stop-color:#4D7ABD"/>
</linearGradient>
<path fill="url(#SVGID_1_)" d="M467.592,251.356h-224.65v-17.386h-62.456v17.386h-21.16c-15.945,0-28.874,17.361-28.874,38.768
	v177.684c0,21.406,12.928,38.768,28.874,38.768h308.266c15.945,0,28.874-17.361,28.874-38.768V290.124
	C496.466,268.718,483.537,251.356,467.592,251.356z M337.065,445.269c-39.577,0-71.666-32.086-71.666-71.666
	c0-39.585,32.089-71.671,71.666-71.671c39.581,0,71.671,32.085,71.671,71.671C408.736,413.183,376.646,445.269,337.065,445.269z"/>
</svg>
