<?xml version="1.0" encoding="utf-8"?>
<!-- Generator: Adobe Illustrator 17.0.1, SVG Export Plug-In . SVG Version: 6.00 Build 0)  -->
<!DOCTYPE svg PUBLIC "-//W3C//DTD SVG 1.1//EN" "http://www.w3.org/Graphics/SVG/1.1/DTD/svg11.dtd">
<svg version="1.1" xmlns="http://www.w3.org/2000/svg" xmlns:xlink="http://www.w3.org/1999/xlink" x="0px" y="0px"
	 width="66.114px" height="51.8px" viewBox="0 0 66.114 51.8" enable-background="new 0 0 66.114 51.8" xml:space="preserve">
<g id="Layer_1">
	<g id="Layer_2">
	</g>
</g>
<g id="Restricted_Member">
</g>
<g id="Restricted_Member_copy">
</g>
<g id="Layer_6">
</g>
<g id="Layer_2_copy">
	<path fill="#E2E2E2" d="M58.666,5.869H33.057V4.035C33.057,1.707,31.225,0,27.966,0H5.311C1.975,0,0,2.25,0,5.586v7.417
		c0,0.044,0.008,0.086,0.009,0.13C0.008,13.195,0,13.255,0,13.317v31.035C0,48.465,3.335,51.8,7.448,51.8h51.218
		c4.113,0,7.448-3.335,7.448-7.448V13.317C66.114,9.204,62.779,5.869,58.666,5.869z"/>
	<circle fill="none" stroke="#C1272D" stroke-width="6" stroke-miterlimit="10" cx="32.939" cy="29.125" r="15.114"/>
	
		<rect x="18.937" y="26.331" transform="matrix(0.7071 -0.7071 0.7071 0.7071 -10.888 32.0459)" fill="#C1272D" width="28.604" height="5.67"/>
</g>
<g id="Layer_5">
</g>
</svg>
