<?xml version="1.0" encoding="utf-8"?>
<!-- Generator: Adobe Illustrator 15.0.0, SVG Export Plug-In . SVG Version: 6.00 Build 0)  -->
<!DOCTYPE svg PUBLIC "-//W3C//DTD SVG 1.1//EN" "http://www.w3.org/Graphics/SVG/1.1/DTD/svg11.dtd">
<svg version="1.1" id="Layer_1" xmlns="http://www.w3.org/2000/svg" xmlns:xlink="http://www.w3.org/1999/xlink" x="0px" y="0px"
	 width="511.565px" height="400.809px" viewBox="50.217 195.596 511.565 400.809"
	 enable-background="new 50.217 195.596 511.565 400.809" xml:space="preserve">
<path fill="#F68522" d="M110.672,382.861c0,0,13.585-28.357,33.793-28.357c17.223,0,260.366,0,343.147,0v-36.779
	c0-26.769-21.702-48.472-48.471-48.472H272.487v-11.936c0-15.147-11.924-26.255-33.131-26.255H91.924
	c-21.711,0-34.559,14.642-34.559,36.353v48.271c0,0.287,0.051,0.559,0.059,0.844c-0.008,0.403-0.059,0.793-0.059,1.196
	c0,0-0.694,235.117,0,237.597C56.762,544.411,110.672,382.861,110.672,382.861z"/>
<path fill="#F68522" d="M469.772,573.704c-18.186,0-341.476,0-375.828,0c-34.35,0-13.656-47.093-13.656-47.093l46.542-131.073
	c0,0,13.585-26.896,33.793-26.896c20.208,0,351.584,0,369.77,0c42.432,0,21.383,42.242,21.383,42.242s-18.019,48.66-39.903,112.499
	C489.979,587.227,487.957,573.704,469.772,573.704z"/>
</svg>
