<?xml version="1.0" encoding="utf-8"?>
<!-- Generator: Adobe Illustrator 15.0.0, SVG Export Plug-In . SVG Version: 6.00 Build 0)  -->
<!DOCTYPE svg PUBLIC "-//W3C//DTD SVG 1.1//EN" "http://www.w3.org/Graphics/SVG/1.1/DTD/svg11.dtd">
<svg version="1.1" id="Layer_1" xmlns="http://www.w3.org/2000/svg" xmlns:xlink="http://www.w3.org/1999/xlink" x="0px" y="0px"
	 width="384.105px" height="448.125px" viewBox="121.406 137.802 384.105 448.125"
	 enable-background="new 121.406 137.802 384.105 448.125" xml:space="preserve">
<g>
	<linearGradient id="SVGID_1_" gradientUnits="userSpaceOnUse" x1="221.5762" y1="220.3584" x2="221.5762" y2="488.7905">
		<stop  offset="0" style="stop-color:#9BB8E0"/>
		<stop  offset="1" style="stop-color:#4D7ABD"/>
	</linearGradient>
	<path fill="url(#SVGID_1_)" d="M297.965,223.369c-8.211,6.779-91.35,64.242-91.35,64.242h-58.069c0,0-18.757-0.485-18.757,23.336
		c0,10.988,0,80.42,0,89.816c0,26.58,23.062,27.556,23.062,27.556h51.36c0,0,84.234,50.082,93.152,57.274
		c8.912,7.192,15.999,0,15.999,0V223.369C313.363,223.369,306.171,216.595,297.965,223.369z"/>
	<linearGradient id="SVGID_2_" gradientUnits="userSpaceOnUse" x1="384.7266" y1="258.731" x2="384.7266" y2="448.1382">
		<stop  offset="0" style="stop-color:#9BB8E0"/>
		<stop  offset="1" style="stop-color:#4D7ABD"/>
	</linearGradient>
	<path fill="url(#SVGID_2_)" d="M383.078,258.731l-29.337,29.337c13.213,19.084,20.978,42.232,20.978,67.206
		c0,23.312-6.784,45.039-18.431,63.354l29.5,29.51c18.814-26.146,29.923-58.203,29.923-92.864
		C415.711,318.971,403.536,285.512,383.078,258.731z"/>
	<linearGradient id="SVGID_3_" gradientUnits="userSpaceOnUse" x1="452.4902" y1="201.0278" x2="452.4902" y2="506.0044">
		<stop  offset="0" style="stop-color:#9BB8E0"/>
		<stop  offset="1" style="stop-color:#4D7ABD"/>
	</linearGradient>
	<path fill="url(#SVGID_3_)" d="M440.781,201.028l-32.643,32.633c26.742,33.305,42.78,75.576,42.78,121.613
		c0,44.404-14.913,85.301-39.955,118.03l32.69,32.7c33.248-41.232,53.187-93.642,53.187-150.73
		C496.841,296.553,475.758,242.77,440.781,201.028z"/>
</g>
</svg>
