<?xml version="1.0" encoding="utf-8"?>
<!-- Generator: Adobe Illustrator 15.0.0, SVG Export Plug-In . SVG Version: 6.00 Build 0)  -->
<!DOCTYPE svg PUBLIC "-//W3C//DTD SVG 1.1//EN" "http://www.w3.org/Graphics/SVG/1.1/DTD/svg11.dtd">
<svg version="1.1" id="Layer_1" xmlns="http://www.w3.org/2000/svg" xmlns:xlink="http://www.w3.org/1999/xlink" x="0px" y="0px"
	 width="72px" height="72px" viewBox="0 0 72 72" enable-background="new 0 0 72 72" xml:space="preserve">
<path fill="#F2F2F2" stroke="#848484" stroke-width="2" stroke-miterlimit="10" d="M26.478,44.488v-5.957
	c0,0-0.375-2.931-3.979-11.681C19.011,18.375,22.51,1.934,36.168,2c0,0,17.875-0.023,13.158,24.692c0,0-0.768,6.611-4.386,10.727
	c0,0-0.999,4.413,0.38,7.436l12.64,5.4c0,0,12.734,5.585,10.676,19.078H3.157c0,0-0.749-15.178,10.775-19.472L26.478,44.488z"/>
<polygon fill="#606060" points="69.08,52.196 63.529,46.646 56.402,53.773 49.275,46.646 43.725,52.196 50.853,59.324 43.725,66.45 
	49.275,72 56.402,64.874 63.529,72 69.08,66.45 61.953,59.324 "/>
<polygon fill="#DD0B0B" points="69.914,52.196 64.363,46.646 57.236,53.773 50.109,46.646 44.559,52.196 51.687,59.324 
	44.559,66.45 50.109,72 57.236,64.874 64.363,72 69.914,66.45 62.787,59.324 "/>
</svg>
