<?xml version="1.0" encoding="utf-8"?>
<!-- Generator: Adobe Illustrator 15.0.0, SVG Export Plug-In . SVG Version: 6.00 Build 0)  -->
<!DOCTYPE svg PUBLIC "-//W3C//DTD SVG 1.1//EN" "http://www.w3.org/Graphics/SVG/1.1/DTD/svg11.dtd">
<svg version="1.1" id="Layer_1" xmlns="http://www.w3.org/2000/svg" xmlns:xlink="http://www.w3.org/1999/xlink" x="0px" y="0px"
	 width="72px" height="72px" viewBox="0 0 72 72" enable-background="new 0 0 72 72" xml:space="preserve">
<path fill="#F2F2F2" stroke="#848484" stroke-width="2" stroke-miterlimit="10" d="M26.478,44.488v-5.957
	c0,0-0.375-2.931-3.979-11.681C19.011,18.375,22.51,1.934,36.168,2c0,0,17.875-0.023,13.158,24.692c0,0-0.768,6.611-4.386,10.727
	c0,0-0.999,4.413,0.38,7.436l12.64,5.4c0,0,12.734,5.585,10.676,19.078H3.157c0,0-0.749-15.178,10.775-19.472L26.478,44.488z"/>
<path fill="#606060" d="M68.365,61.158c0.149-0.771,0.229-1.568,0.229-2.385c0-0.817-0.08-1.614-0.229-2.386h-2.9
	c-0.229-0.909-0.59-1.765-1.058-2.551l2.052-2.052c-0.898-1.33-2.044-2.477-3.374-3.375l-2.052,2.053
	c-0.786-0.469-1.642-0.827-2.551-1.058v-2.9c-0.771-0.149-1.568-0.229-2.386-0.229c-0.816,0-1.614,0.08-2.385,0.229v2.9
	c-0.91,0.23-1.765,0.589-2.552,1.058l-2.052-2.052c-1.329,0.897-2.476,2.044-3.375,3.374l2.052,2.052
	c-0.467,0.786-0.826,1.642-1.056,2.551h-2.9c-0.15,0.771-0.229,1.568-0.229,2.386c0,0.816,0.079,1.614,0.229,2.385h2.9
	c0.229,0.91,0.589,1.765,1.056,2.551l-2.052,2.052c0.899,1.33,2.046,2.477,3.375,3.376l2.052-2.052
	c0.787,0.467,1.642,0.826,2.552,1.056v2.9c0.771,0.149,1.568,0.229,2.385,0.229c0.817,0,1.614-0.08,2.386-0.229v-2.9
	c0.909-0.229,1.765-0.589,2.551-1.056l2.052,2.052c1.33-0.899,2.476-2.045,3.374-3.375l-2.052-2.052
	c0.468-0.785,0.828-1.642,1.058-2.552H68.365z M56.097,63.515c-2.618,0-4.741-2.123-4.741-4.741s2.123-4.741,4.741-4.741
	s4.74,2.123,4.74,4.741S58.715,63.515,56.097,63.515z"/>
<path fill="#F58523" d="M68.67,61.741c0.149-0.771,0.229-1.568,0.229-2.385c0-0.817-0.08-1.614-0.229-2.386h-2.9
	c-0.229-0.909-0.59-1.765-1.058-2.551l2.052-2.052c-0.898-1.33-2.044-2.477-3.374-3.375l-2.052,2.053
	c-0.786-0.469-1.642-0.827-2.551-1.058v-2.9c-0.771-0.149-1.568-0.229-2.386-0.229c-0.816,0-1.614,0.08-2.385,0.229v2.9
	c-0.91,0.23-1.765,0.589-2.552,1.058l-2.052-2.052c-1.329,0.897-2.476,2.044-3.375,3.374l2.052,2.052
	c-0.467,0.786-0.826,1.642-1.056,2.551h-2.9c-0.15,0.771-0.229,1.568-0.229,2.386c0,0.816,0.079,1.614,0.229,2.385h2.9
	c0.229,0.91,0.589,1.765,1.056,2.551l-2.052,2.052c0.899,1.33,2.046,2.477,3.375,3.376l2.052-2.052
	c0.787,0.467,1.642,0.826,2.552,1.056v2.9c0.771,0.149,1.568,0.229,2.385,0.229c0.817,0,1.614-0.08,2.386-0.229v-2.9
	c0.909-0.229,1.765-0.589,2.551-1.056l2.052,2.052c1.33-0.899,2.476-2.045,3.374-3.375l-2.052-2.052
	c0.468-0.785,0.828-1.642,1.058-2.552H68.67z M56.401,64.098c-2.618,0-4.741-2.123-4.741-4.741s2.123-4.741,4.741-4.741
	s4.74,2.123,4.74,4.741S59.02,64.098,56.401,64.098z"/>
</svg>
