<?xml version="1.0" encoding="utf-8"?>
<!-- Generator: Adobe Illustrator 15.0.0, SVG Export Plug-In . SVG Version: 6.00 Build 0)  -->
<!DOCTYPE svg PUBLIC "-//W3C//DTD SVG 1.1//EN" "http://www.w3.org/Graphics/SVG/1.1/DTD/svg11.dtd">
<svg version="1.1" id="Layer_1" xmlns="http://www.w3.org/2000/svg" xmlns:xlink="http://www.w3.org/1999/xlink" x="0px" y="0px"
	 width="72px" height="72px" viewBox="0 0 72 72" enable-background="new 0 0 72 72" xml:space="preserve">
<path fill="#F2F2F2" stroke="#848484" stroke-width="2" stroke-miterlimit="10" d="M26.478,44.488v-5.957
	c0,0-0.375-2.931-3.979-11.681C19.011,18.375,22.51,1.934,36.168,2c0,0,17.875-0.023,13.158,24.692c0,0-0.768,6.611-4.386,10.727
	c0,0-0.999,4.413,0.38,7.436l12.64,5.4c0,0,12.734,5.585,10.676,19.078H3.157c0,0-0.749-15.178,10.775-19.472L26.478,44.488z"/>
<polygon fill="#606060" points="59.774,46.083 52.698,46.083 52.698,55.169 43.611,55.169 43.611,62.245 52.698,62.245 
	52.698,71.333 59.774,71.332 59.774,62.245 68.86,62.245 68.86,55.169 59.774,55.169 "/>
<polygon fill="#F58523" points="60.39,46.75 53.313,46.75 53.313,55.836 44.227,55.836 44.227,62.912 53.313,62.912 53.313,72 
	60.39,71.999 60.39,62.912 69.476,62.912 69.476,55.836 60.39,55.836 "/>
</svg>
